<mxfile host="65bd71144e">
    <diagram id="xENb1PR-wKurncBFWdLF" name="Page-1">
        <mxGraphModel dx="2043" dy="2630" grid="1" gridSize="10" guides="1" tooltips="1" connect="1" arrows="0" fold="1" page="1" pageScale="1" pageWidth="850" pageHeight="1100" background="none" math="0" shadow="0">
            <root>
                <mxCell id="0"/>
                <mxCell id="1" parent="0"/>
                <UserObject label="await confirm" lucidchartObjectId="9NNubxDWasQ0" id="2">
                    <mxCell style="html=1;blockSpacing=1;whiteSpace=wrap;shape=mxgraph.sysml.package2;xSize=90;overflow=fill;fontSize=13;spacing=0;strokeColor=#5e5e5e;strokeOpacity=100;rounded=1;absoluteArcSize=1;arcSize=9;strokeWidth=2.3;container=1;pointerEvents=0;collapsible=0;recursiveResize=0;fontColor=#000000;align=left;" parent="1" vertex="1">
                        <mxGeometry x="423.5" y="-70" width="829" height="403" as="geometry"/>
                    </mxCell>
                </UserObject>
                <UserObject label="" lucidchartObjectId="KANum4VIUakB" id="3">
                    <mxCell style="html=1;overflow=block;blockSpacing=1;ellipse;fillColor=#000000;fontSize=13;spacing=0;strokeColor=#5e5e5e;strokeOpacity=100;rounded=1;absoluteArcSize=1;arcSize=9;strokeWidth=2.3;fontColor=#000000;" parent="1" vertex="1">
                        <mxGeometry x="260" y="-984" width="39" height="32" as="geometry"/>
                    </mxCell>
                </UserObject>
                <UserObject label="" lucidchartObjectId="9ANuZ-cOUqGq" id="4">
                    <mxCell style="html=1;jettySize=18;whiteSpace=wrap;fontSize=13;strokeColor=#5E5E5E;strokeWidth=1.5;rounded=1;arcSize=12;edgeStyle=orthogonalEdgeStyle;startArrow=none;endArrow=block;endFill=1;exitX=1.029;exitY=0.5;exitPerimeter=0;entryX=-0.002;entryY=0.5;entryPerimeter=0;fontColor=#000000;" parent="1" source="3" target="5" edge="1">
                        <mxGeometry width="100" height="100" relative="1" as="geometry">
                            <Array as="points"/>
                        </mxGeometry>
                    </mxCell>
                </UserObject>
                <mxCell id="5" value="&lt;div style=&quot;display: flex; justify-content: center; text-align: center; align-items: baseline; font-size: 0; line-height: 1.25;margin-top: -2px;&quot;&gt;&lt;span&gt;&lt;span style=&quot;font-size: 16.7px;&quot;&gt;Event(&quot;signup&quot;)&lt;/span&gt;&lt;/span&gt;&lt;/div&gt;" style="rounded=1;arcSize=20;overflow=block;blockSpacing=1;html=1;fontSize=13;spacing=0;strokeColor=#5e5e5e;strokeOpacity=100;strokeWidth=2.3;fontColor=#000000;fillStyle=solid;" parent="1" vertex="1">
                    <mxGeometry x="665" y="-1000" width="501" height="64" as="geometry"/>
                </mxCell>
                <UserObject label="" lucidchartObjectId="eCNuh2-9iTkH" id="6">
                    <mxCell style="html=1;jettySize=18;whiteSpace=wrap;fontSize=13;strokeColor=#5E5E5E;strokeWidth=1.5;rounded=1;arcSize=12;edgeStyle=orthogonalEdgeStyle;startArrow=none;endArrow=block;endFill=1;exitX=0.5;exitY=1.017;exitPerimeter=0;entryX=0.25;entryY=0;entryPerimeter=0;fontColor=#000000;" parent="1" source="5" target="7" edge="1">
                        <mxGeometry width="100" height="100" relative="1" as="geometry">
                            <Array as="points"/>
                        </mxGeometry>
                    </mxCell>
                </UserObject>
                <UserObject label="" lucidchartObjectId="hCNuIkLAoGU2" id="7">
                    <mxCell style="html=1;overflow=block;blockSpacing=1;fillColor=#000000;fontSize=13;spacing=0;strokeColor=#5e5e5e;strokeOpacity=100;rounded=1;absoluteArcSize=1;arcSize=9;strokeWidth=2.3;fontColor=#000000;" parent="1" vertex="1">
                        <mxGeometry x="723" y="-839" width="154" height="16" as="geometry"/>
                    </mxCell>
                </UserObject>
                <UserObject label="" lucidchartObjectId="_CNuZhy.L0TY" id="8">
                    <mxCell style="html=1;jettySize=18;whiteSpace=wrap;fontSize=13;strokeColor=#5E5E5E;strokeWidth=1.5;rounded=1;arcSize=12;edgeStyle=orthogonalEdgeStyle;startArrow=none;endArrow=block;endFill=1;exitX=-0.007;exitY=0.5;exitPerimeter=0;entryX=0.5;entryY=-0.017;entryPerimeter=0;fontColor=#000000;" parent="1" source="7" target="9" edge="1">
                        <mxGeometry width="100" height="100" relative="1" as="geometry">
                            <Array as="points"/>
                        </mxGeometry>
                    </mxCell>
                </UserObject>
                <mxCell id="9" value="&lt;div style=&quot;display: flex; justify-content: center; text-align: center; align-items: baseline; font-size: 0; line-height: 1.25;margin-top: -2px;&quot;&gt;&lt;span&gt;&lt;span style=&quot;font-size: 16.7px;&quot;&gt;formulary_valid&lt;/span&gt;&lt;/span&gt;&lt;/div&gt;" style="rounded=1;arcSize=20;overflow=block;blockSpacing=1;html=1;fontSize=13;spacing=0;strokeColor=#5e5e5e;strokeOpacity=100;strokeWidth=2.3;fontColor=#000000;" parent="1" vertex="1">
                    <mxGeometry x="414" y="-790" width="193" height="64" as="geometry"/>
                </mxCell>
                <UserObject label="" lucidchartObjectId="CDNuMbn6S~Md" id="10">
                    <mxCell style="html=1;jettySize=18;whiteSpace=wrap;fontSize=13;strokeColor=#5E5E5E;strokeWidth=1.5;rounded=1;arcSize=12;edgeStyle=orthogonalEdgeStyle;startArrow=none;endArrow=block;endFill=1;exitX=1.007;exitY=0.5;exitPerimeter=0;entryX=0.5;entryY=-0.017;entryPerimeter=0;fontColor=#000000;" parent="1" source="7" target="11" edge="1">
                        <mxGeometry width="100" height="100" relative="1" as="geometry">
                            <Array as="points"/>
                        </mxGeometry>
                    </mxCell>
                </UserObject>
                <mxCell id="11" value="&lt;div style=&quot;display: flex; justify-content: center; text-align: center; align-items: baseline; font-size: 0; line-height: 1.25;margin-top: -2px;&quot;&gt;&lt;span&gt;&lt;span style=&quot;font-size: 16.7px;&quot;&gt;auth_service_connected &lt;/span&gt;&lt;/span&gt;&lt;/div&gt;" style="rounded=1;arcSize=20;overflow=block;blockSpacing=1;html=1;fontSize=13;spacing=0;strokeColor=#5e5e5e;strokeOpacity=100;strokeWidth=2.3;fontColor=#000000;" parent="1" vertex="1">
                    <mxGeometry x="1031" y="-790" width="309" height="64" as="geometry"/>
                </mxCell>
                <UserObject label="" lucidchartObjectId="bENuChNIqTIM" id="12">
                    <mxCell style="html=1;overflow=block;blockSpacing=1;whiteSpace=wrap;shape=rhombus;fontSize=13;spacing=0;strokeColor=#5e5e5e;strokeOpacity=100;rounded=1;absoluteArcSize=1;arcSize=9;strokeWidth=2.3;fontColor=#000000;" parent="1" vertex="1">
                        <mxGeometry x="1070" y="-404" width="39" height="32" as="geometry"/>
                    </mxCell>
                </UserObject>
                <UserObject label="" lucidchartObjectId="hENuyL7d47UH" id="13">
                    <mxCell style="html=1;jettySize=18;whiteSpace=wrap;fontSize=13;strokeColor=#5E5E5E;strokeWidth=1.5;rounded=1;arcSize=12;edgeStyle=orthogonalEdgeStyle;startArrow=none;endArrow=block;endFill=1;exitX=0.5;exitY=1.017;exitPerimeter=0;entryX=0.5;entryY=0.016;entryPerimeter=0;fontColor=#000000;" parent="1" source="41" target="14" edge="1">
                        <mxGeometry width="100" height="100" relative="1" as="geometry">
                            <Array as="points"/>
                        </mxGeometry>
                    </mxCell>
                </UserObject>
                <UserObject label="" lucidchartObjectId="iENu-VrhnDNN" id="14">
                    <mxCell style="html=1;overflow=block;blockSpacing=1;whiteSpace=wrap;shape=rhombus;fontSize=13;spacing=0;strokeColor=#5e5e5e;strokeOpacity=100;rounded=1;absoluteArcSize=1;arcSize=9;strokeWidth=2.3;fontColor=#000000;" parent="1" vertex="1">
                        <mxGeometry x="569" y="-404" width="39" height="32" as="geometry"/>
                    </mxCell>
                </UserObject>
                <UserObject label="" lucidchartObjectId="vENu-bHoKH-_" id="15">
                    <mxCell style="html=1;jettySize=18;whiteSpace=wrap;fontSize=13.3;fontColor=#000000;fontStyle=1;align=center;strokeColor=#5E5E5E;strokeWidth=1.5;rounded=1;arcSize=12;edgeStyle=orthogonalEdgeStyle;startArrow=none;endArrow=block;endFill=1;exitX=0.975;exitY=0.5;exitPerimeter=0;entryX=0.025;entryY=0.5;entryPerimeter=0;" parent="1" source="14" target="17" edge="1">
                        <mxGeometry width="100" height="100" relative="1" as="geometry">
                            <Array as="points"/>
                        </mxGeometry>
                    </mxCell>
                </UserObject>
                <mxCell id="16" value="Non" style="text;html=1;resizable=0;labelBackgroundColor=default;align=center;verticalAlign=middle;fontStyle=1;fontColor=#000000;fontSize=13.3;" parent="15" vertex="1">
                    <mxGeometry relative="1" as="geometry"/>
                </mxCell>
                <UserObject label="" lucidchartObjectId="wENu-WMFKMva" id="17">
                    <mxCell style="html=1;overflow=block;blockSpacing=1;whiteSpace=wrap;shape=rhombus;fontSize=13;spacing=0;strokeColor=#5e5e5e;strokeOpacity=100;rounded=1;absoluteArcSize=1;arcSize=9;strokeWidth=2.3;fontColor=#000000;" parent="1" vertex="1">
                        <mxGeometry x="819" y="-645" width="39" height="32" as="geometry"/>
                    </mxCell>
                </UserObject>
                <UserObject label="" lucidchartObjectId="RENuM_x4sSli" id="18">
                    <mxCell style="html=1;jettySize=18;whiteSpace=wrap;fontSize=13.3;fontColor=#000000;fontStyle=1;align=center;strokeColor=#5E5E5E;strokeWidth=1.5;rounded=1;arcSize=12;edgeStyle=orthogonalEdgeStyle;startArrow=none;endArrow=block;endFill=1;exitX=0.5;exitY=0.984;exitPerimeter=0;entryX=0.9;entryY=-0.07;entryPerimeter=0;" parent="1" source="12" target="26" edge="1">
                        <mxGeometry width="100" height="100" relative="1" as="geometry">
                            <Array as="points"/>
                        </mxGeometry>
                    </mxCell>
                </UserObject>
                <mxCell id="19" value="Oui" style="text;html=1;resizable=0;labelBackgroundColor=default;align=center;verticalAlign=middle;fontStyle=1;fontColor=#000000;fontSize=13.3;" parent="18" vertex="1">
                    <mxGeometry relative="1" as="geometry"/>
                </mxCell>
                <UserObject label="" lucidchartObjectId="UENuojL7oZFD" id="20">
                    <mxCell style="html=1;jettySize=18;whiteSpace=wrap;fontSize=13.3;fontColor=#000000;fontStyle=1;align=center;strokeColor=#5E5E5E;strokeWidth=1.5;rounded=1;arcSize=12;edgeStyle=orthogonalEdgeStyle;startArrow=none;endArrow=block;endFill=1;exitX=0.025;exitY=0.5;exitPerimeter=0;entryX=0.975;entryY=0.5;entryPerimeter=0;" parent="1" source="12" target="17" edge="1">
                        <mxGeometry width="100" height="100" relative="1" as="geometry">
                            <Array as="points"/>
                        </mxGeometry>
                    </mxCell>
                </UserObject>
                <mxCell id="21" value="Non" style="text;html=1;resizable=0;labelBackgroundColor=default;align=center;verticalAlign=middle;fontStyle=1;fontColor=#000000;fontSize=13.3;" parent="20" vertex="1">
                    <mxGeometry relative="1" as="geometry"/>
                </mxCell>
                <UserObject label="" lucidchartObjectId="GFNujyI0Qc8q" id="22">
                    <mxCell style="html=1;jettySize=18;whiteSpace=wrap;fontSize=13;strokeColor=#5E5E5E;strokeWidth=1.5;rounded=1;arcSize=12;edgeStyle=orthogonalEdgeStyle;startArrow=none;endArrow=block;endFill=1;exitX=0.5;exitY=0.984;exitPerimeter=0;entryX=0.5;entryY=-0.017;entryPerimeter=0;fontColor=#000000;" parent="1" source="17" target="23" edge="1">
                        <mxGeometry width="100" height="100" relative="1" as="geometry">
                            <Array as="points"/>
                        </mxGeometry>
                    </mxCell>
                </UserObject>
                <mxCell id="23" value="&lt;div style=&quot;display: flex; justify-content: center; text-align: center; align-items: baseline; font-size: 0; line-height: 1.25;margin-top: -2px;&quot;&gt;&lt;span&gt;&lt;span style=&quot;font-size: 16.7px;&quot;&gt;delete_request&lt;/span&gt;&lt;/span&gt;&lt;/div&gt;" style="rounded=1;arcSize=20;whiteSpace=wrap;overflow=block;blockSpacing=1;html=1;fontSize=13;spacing=0;strokeColor=#5e5e5e;strokeOpacity=100;strokeWidth=2.3;fontColor=#000000;" parent="1" vertex="1">
                    <mxGeometry x="761" y="-532" width="154" height="64" as="geometry"/>
                </mxCell>
                <UserObject label="" lucidchartObjectId="AGNuyfDCfZ3p" id="24">
                    <mxCell style="html=1;jettySize=18;whiteSpace=wrap;fontSize=13;strokeColor=#5E5E5E;strokeWidth=1.5;rounded=1;arcSize=12;edgeStyle=orthogonalEdgeStyle;startArrow=none;endArrow=block;endFill=1;exitX=0.5;exitY=1.017;exitPerimeter=0;entryX=0.5;entryY=-0.035;entryPerimeter=0;fontColor=#000000;" parent="1" source="23" target="25" edge="1">
                        <mxGeometry width="100" height="100" relative="1" as="geometry">
                            <Array as="points"/>
                        </mxGeometry>
                    </mxCell>
                </UserObject>
                <UserObject label="" lucidchartObjectId="CGNuHaA0Pcdx" id="25">
                    <mxCell style="html=1;overflow=block;blockSpacing=1;whiteSpace=wrap;shape=mxgraph.bpmn.shape;outline=end;symbol=terminate;strokeColor=#000000;fillColor=#ffffff;fontSize=13;spacing=0;strokeOpacity=100;rounded=1;absoluteArcSize=1;arcSize=9;strokeWidth=2.3;fontColor=#000000;" parent="1" vertex="1">
                        <mxGeometry x="819" y="-387" width="39" height="32" as="geometry"/>
                    </mxCell>
                </UserObject>
                <UserObject label="" lucidchartObjectId=".GNuiZ.bpCaC" id="26">
                    <mxCell style="html=1;overflow=block;blockSpacing=1;whiteSpace=wrap;fillColor=#000000;fontSize=13;spacing=0;strokeColor=#5e5e5e;strokeOpacity=100;rounded=1;absoluteArcSize=1;arcSize=9;strokeWidth=2.3;fontColor=#000000;" parent="1" vertex="1">
                        <mxGeometry x="549" y="-275" width="598" height="16" as="geometry"/>
                    </mxCell>
                </UserObject>
                <UserObject label="" lucidchartObjectId="sHNutsPccugG" id="27">
                    <mxCell style="html=1;jettySize=18;whiteSpace=wrap;fontSize=13.3;fontColor=#000000;fontStyle=1;align=center;strokeColor=#5E5E5E;strokeWidth=1.5;rounded=1;arcSize=12;edgeStyle=orthogonalEdgeStyle;startArrow=none;endArrow=block;endFill=1;exitX=0.5;exitY=0.984;exitPerimeter=0;entryX=0.068;entryY=-0.07;entryPerimeter=0;" parent="1" source="14" target="26" edge="1">
                        <mxGeometry width="100" height="100" relative="1" as="geometry">
                            <Array as="points"/>
                        </mxGeometry>
                    </mxCell>
                </UserObject>
                <mxCell id="28" value="Oui" style="text;html=1;resizable=0;labelBackgroundColor=default;align=center;verticalAlign=middle;fontStyle=1;fontColor=#000000;fontSize=13.3;" parent="27" vertex="1">
                    <mxGeometry relative="1" as="geometry"/>
                </mxCell>
                <mxCell id="29" value="&lt;div style=&quot;display: flex; justify-content: center; text-align: center; align-items: baseline; font-size: 0; line-height: 1.25;margin-top: -2px;&quot;&gt;&lt;span&gt;&lt;span style=&quot;font-size: 16.7px;&quot;&gt;no_other_user&lt;/span&gt;&lt;/span&gt;&lt;/div&gt;" style="rounded=1;arcSize=20;whiteSpace=wrap;overflow=block;blockSpacing=1;html=1;fontSize=13;spacing=0;strokeColor=#5e5e5e;strokeOpacity=100;strokeWidth=2.3;fontColor=#000000;" parent="1" vertex="1">
                    <mxGeometry x="1012" y="-549" width="309" height="64" as="geometry"/>
                </mxCell>
                <UserObject label="" lucidchartObjectId="rJNu3k_f-T4b" id="30">
                    <mxCell style="html=1;jettySize=18;whiteSpace=wrap;fontSize=13;strokeColor=#5E5E5E;strokeWidth=1.5;rounded=1;arcSize=12;edgeStyle=orthogonalEdgeStyle;startArrow=none;endArrow=block;endFill=1;exitX=0.5;exitY=1.017;exitPerimeter=0;entryX=0.5;entryY=0.016;entryPerimeter=0;fontColor=#000000;" parent="1" source="11" target="31" edge="1">
                        <mxGeometry width="100" height="100" relative="1" as="geometry">
                            <Array as="points"/>
                        </mxGeometry>
                    </mxCell>
                </UserObject>
                <UserObject label="" lucidchartObjectId="sJNuisR-MhfG" id="31">
                    <mxCell style="html=1;overflow=block;blockSpacing=1;whiteSpace=wrap;shape=rhombus;fontSize=13;spacing=0;strokeColor=#5e5e5e;strokeOpacity=100;rounded=1;absoluteArcSize=1;arcSize=9;strokeWidth=2.3;fontColor=#000000;" parent="1" vertex="1">
                        <mxGeometry x="1166" y="-694" width="39" height="32" as="geometry"/>
                    </mxCell>
                </UserObject>
                <UserObject label="" lucidchartObjectId="vJNuU-E9qUAA" id="32">
                    <mxCell style="html=1;jettySize=18;whiteSpace=wrap;fontSize=13.3;fontColor=#000000;fontStyle=1;align=center;strokeColor=#5E5E5E;strokeWidth=1.5;rounded=1;arcSize=12;edgeStyle=orthogonalEdgeStyle;startArrow=none;endArrow=block;endFill=1;exitX=0.5;exitY=0.984;exitPerimeter=0;entryX=0.562;entryY=-0.017;entryPerimeter=0;" parent="1" source="31" target="29" edge="1">
                        <mxGeometry width="100" height="100" relative="1" as="geometry">
                            <Array as="points"/>
                        </mxGeometry>
                    </mxCell>
                </UserObject>
                <mxCell id="33" value="Oui" style="text;html=1;resizable=0;labelBackgroundColor=default;align=center;verticalAlign=middle;fontStyle=1;fontColor=#000000;fontSize=13.3;" parent="32" vertex="1">
                    <mxGeometry relative="1" as="geometry"/>
                </mxCell>
                <UserObject label="" lucidchartObjectId="CJNuX-OfsDIr" id="34">
                    <mxCell style="html=1;jettySize=18;whiteSpace=wrap;fontSize=13.3;fontColor=#000000;fontStyle=1;align=center;strokeColor=#5E5E5E;strokeWidth=1.5;rounded=1;arcSize=12;edgeStyle=orthogonalEdgeStyle;startArrow=none;endArrow=block;endFill=1;exitX=0.025;exitY=0.5;exitPerimeter=0;entryX=0.5;entryY=0.016;entryPerimeter=0;" parent="1" source="31" target="17" edge="1">
                        <mxGeometry width="100" height="100" relative="1" as="geometry">
                            <Array as="points"/>
                        </mxGeometry>
                    </mxCell>
                </UserObject>
                <mxCell id="35" value="Non" style="text;html=1;resizable=0;labelBackgroundColor=default;align=center;verticalAlign=middle;fontStyle=1;fontColor=#000000;fontSize=13.3;" parent="34" vertex="1">
                    <mxGeometry relative="1" as="geometry"/>
                </mxCell>
                <UserObject label="" lucidchartObjectId="IJNuMA8zq1ss" id="36">
                    <mxCell style="html=1;jettySize=18;whiteSpace=wrap;fontSize=13;strokeColor=#5E5E5E;strokeWidth=1.5;rounded=1;arcSize=12;edgeStyle=orthogonalEdgeStyle;startArrow=none;endArrow=block;endFill=1;exitX=0.5;exitY=1.017;exitPerimeter=0;entryX=0.5;entryY=0.016;entryPerimeter=0;fontColor=#000000;" parent="1" source="29" target="12" edge="1">
                        <mxGeometry width="100" height="100" relative="1" as="geometry">
                            <Array as="points"/>
                        </mxGeometry>
                    </mxCell>
                </UserObject>
                <UserObject label="" lucidchartObjectId="8KNuIokJuios" id="37">
                    <mxCell style="html=1;jettySize=18;whiteSpace=wrap;fontSize=13;strokeColor=#5E5E5E;strokeWidth=1.5;rounded=1;arcSize=12;edgeStyle=orthogonalEdgeStyle;startArrow=none;endArrow=block;endFill=1;exitX=0.5;exitY=1.017;exitPerimeter=0;entryX=0.5;entryY=0.016;entryPerimeter=0;fontColor=#000000;" parent="1" source="9" target="38" edge="1">
                        <mxGeometry width="100" height="100" relative="1" as="geometry">
                            <Array as="points"/>
                        </mxGeometry>
                    </mxCell>
                </UserObject>
                <UserObject label="" lucidchartObjectId="9KNuPIdGmb6U" id="38">
                    <mxCell style="html=1;overflow=block;blockSpacing=1;whiteSpace=wrap;shape=rhombus;fontSize=13;spacing=0;strokeColor=#5e5e5e;strokeOpacity=100;rounded=1;absoluteArcSize=1;arcSize=9;strokeWidth=2.3;fontColor=#000000;" parent="1" vertex="1">
                        <mxGeometry x="491" y="-694" width="39" height="32" as="geometry"/>
                    </mxCell>
                </UserObject>
                <UserObject label="" lucidchartObjectId="eLNunPSPW104" id="39">
                    <mxCell style="html=1;jettySize=18;whiteSpace=wrap;fontSize=13.3;fontColor=#000000;fontStyle=1;align=center;strokeColor=#5E5E5E;strokeWidth=1.5;rounded=1;arcSize=12;edgeStyle=orthogonalEdgeStyle;startArrow=none;endArrow=block;endFill=1;exitX=0.5;exitY=0.984;exitPerimeter=0;entryX=0.5;entryY=-0.017;entryPerimeter=0;" parent="1" source="38" target="41" edge="1">
                        <mxGeometry width="100" height="100" relative="1" as="geometry">
                            <Array as="points"/>
                        </mxGeometry>
                    </mxCell>
                </UserObject>
                <mxCell id="40" value="Oui" style="text;html=1;resizable=0;labelBackgroundColor=default;align=center;verticalAlign=middle;fontStyle=1;fontColor=#000000;fontSize=13.3;" parent="39" vertex="1">
                    <mxGeometry relative="1" as="geometry"/>
                </mxCell>
                <mxCell id="41" value="&lt;div style=&quot;display: flex; justify-content: center; text-align: center; align-items: baseline; font-size: 0; line-height: 1.25;margin-top: -2px;&quot;&gt;&lt;span&gt;&lt;span style=&quot;font-size: 16.7px;&quot;&gt;security_input_ok&lt;/span&gt;&lt;/span&gt;&lt;/div&gt;" style="rounded=1;arcSize=20;whiteSpace=wrap;overflow=block;blockSpacing=1;html=1;fontSize=13;spacing=0;strokeColor=#5e5e5e;strokeOpacity=100;strokeWidth=2.3;fontColor=#000000;" parent="1" vertex="1">
                    <mxGeometry x="414" y="-565" width="193" height="64" as="geometry"/>
                </mxCell>
                <UserObject label="" lucidchartObjectId="lLNuz2mynfg4" id="42">
                    <mxCell style="html=1;jettySize=18;whiteSpace=wrap;fontSize=13.3;fontColor=#000000;fontStyle=1;align=center;strokeColor=#5E5E5E;strokeWidth=1.5;rounded=1;arcSize=12;edgeStyle=orthogonalEdgeStyle;startArrow=none;endArrow=block;endFill=1;exitX=0.975;exitY=0.5;exitPerimeter=0;entryX=0.5;entryY=0.016;entryPerimeter=0;" parent="1" source="38" target="17" edge="1">
                        <mxGeometry width="100" height="100" relative="1" as="geometry">
                            <Array as="points"/>
                        </mxGeometry>
                    </mxCell>
                </UserObject>
                <mxCell id="43" value="Non" style="text;html=1;resizable=0;labelBackgroundColor=default;align=center;verticalAlign=middle;fontStyle=1;fontColor=#000000;fontSize=13.3;" parent="42" vertex="1">
                    <mxGeometry relative="1" as="geometry"/>
                </mxCell>
                <UserObject label="" lucidchartObjectId="qNNuN7e2O3u6" id="44">
                    <mxCell style="html=1;jettySize=18;whiteSpace=wrap;fontSize=13;strokeColor=#5E5E5E;strokeWidth=1.5;rounded=1;arcSize=12;edgeStyle=orthogonalEdgeStyle;startArrow=none;endArrow=block;endFill=1;exitX=0.5;exitY=1.07;exitPerimeter=0;entryX=0.5;entryY=-0.017;entryPerimeter=0;fontColor=#000000;" parent="1" source="26" target="45" edge="1">
                        <mxGeometry width="100" height="100" relative="1" as="geometry">
                            <Array as="points"/>
                        </mxGeometry>
                    </mxCell>
                </UserObject>
                <mxCell id="45" value="&lt;div style=&quot;display: flex; justify-content: center; text-align: center; align-items: baseline; font-size: 0; line-height: 1.25;margin-top: -2px;&quot;&gt;&lt;span&gt;&lt;span style=&quot;font-size: 16.7px;&quot;&gt;send_request&lt;/span&gt;&lt;/span&gt;&lt;/div&gt;" style="rounded=1;arcSize=20;whiteSpace=wrap;overflow=block;blockSpacing=1;html=1;fontSize=13;spacing=0;strokeColor=#5e5e5e;strokeOpacity=100;strokeWidth=2.3;fontColor=#000000;" parent="1" vertex="1">
                    <mxGeometry x="752" y="-194" width="193" height="64" as="geometry"/>
                </mxCell>
                <UserObject label="" lucidchartObjectId="uONuEctptQsI" id="46">
                    <mxCell style="html=1;jettySize=18;whiteSpace=wrap;fontSize=13;strokeColor=#5E5E5E;strokeWidth=1.5;rounded=1;arcSize=12;edgeStyle=orthogonalEdgeStyle;startArrow=none;endArrow=block;endFill=1;exitX=0.5;exitY=1.017;exitPerimeter=0;entryX=0.5;entryY=-0.017;entryPerimeter=0;fontColor=#000000;" parent="1" source="45" target="47" edge="1">
                        <mxGeometry width="100" height="100" relative="1" as="geometry">
                            <Array as="points"/>
                        </mxGeometry>
                    </mxCell>
                </UserObject>
                <mxCell id="47" value="&lt;div style=&quot;display: flex; justify-content: center; text-align: center; align-items: baseline; font-size: 0; line-height: 1.25;margin-top: -2px;&quot;&gt;&lt;span&gt;&lt;span style=&quot;font-size: 16.7px;&quot;&gt;created?&lt;/span&gt;&lt;/span&gt;&lt;/div&gt;" style="rounded=1;arcSize=20;whiteSpace=wrap;overflow=block;blockSpacing=1;html=1;fontSize=13;spacing=0;strokeColor=#5e5e5e;strokeOpacity=100;strokeWidth=2.3;fontColor=#000000;" parent="1" vertex="1">
                    <mxGeometry x="1012" y="48" width="154" height="64" as="geometry"/>
                </mxCell>
                <UserObject label="" lucidchartObjectId="tPNuKIG653~S" id="48">
                    <mxCell style="html=1;jettySize=18;whiteSpace=wrap;fontSize=13;strokeColor=#5E5E5E;strokeWidth=1.5;rounded=1;arcSize=12;edgeStyle=orthogonalEdgeStyle;startArrow=none;endArrow=block;endFill=1;exitX=0.5;exitY=1.017;exitPerimeter=0;entryX=0.5;entryY=0.016;entryPerimeter=0;fontColor=#000000;" parent="1" source="47" target="49" edge="1">
                        <mxGeometry width="100" height="100" relative="1" as="geometry">
                            <Array as="points"/>
                        </mxGeometry>
                    </mxCell>
                </UserObject>
                <UserObject label="" lucidchartObjectId="vPNu8dV2SVg6" id="49">
                    <mxCell style="html=1;overflow=block;blockSpacing=1;whiteSpace=wrap;shape=rhombus;fontSize=13;spacing=0;strokeColor=#5e5e5e;strokeOpacity=100;rounded=1;absoluteArcSize=1;arcSize=9;strokeWidth=2.3;fontColor=#000000;" parent="1" vertex="1">
                        <mxGeometry x="829" y="193" width="39" height="32" as="geometry"/>
                    </mxCell>
                </UserObject>
                <UserObject label="" lucidchartObjectId="APNuz84FQ8UU" id="50">
                    <mxCell style="html=1;jettySize=18;whiteSpace=wrap;fontSize=13.3;fontColor=#000000;fontStyle=1;align=center;strokeColor=#5E5E5E;strokeWidth=1.5;rounded=1;arcSize=12;edgeStyle=orthogonalEdgeStyle;startArrow=none;endArrow=block;endFill=1;exitX=0.5;exitY=0.984;exitPerimeter=0;entryX=0.5;entryY=-0.017;entryPerimeter=0;" parent="1" source="49" target="62" edge="1">
                        <mxGeometry width="100" height="100" relative="1" as="geometry">
                            <Array as="points"/>
                        </mxGeometry>
                    </mxCell>
                </UserObject>
                <mxCell id="51" value="Oui" style="text;html=1;resizable=0;labelBackgroundColor=default;align=center;verticalAlign=middle;fontStyle=1;fontColor=#000000;fontSize=13.3;" parent="50" vertex="1">
                    <mxGeometry relative="1" as="geometry"/>
                </mxCell>
                <UserObject label="" lucidchartObjectId="IPNut1IvCcZ7" id="52">
                    <mxCell style="html=1;jettySize=18;whiteSpace=wrap;fontSize=13.3;fontColor=#000000;fontStyle=1;align=center;strokeColor=#5E5E5E;strokeWidth=1.5;rounded=1;arcSize=12;edgeStyle=orthogonalEdgeStyle;startArrow=none;endArrow=block;endFill=1;exitX=0.025;exitY=0.5;exitPerimeter=0;entryX=0.5;entryY=1.017;entryPerimeter=0;" parent="1" source="49" target="54" edge="1">
                        <mxGeometry width="100" height="100" relative="1" as="geometry">
                            <Array as="points">
                                <mxPoint x="569" y="209"/>
                            </Array>
                        </mxGeometry>
                    </mxCell>
                </UserObject>
                <mxCell id="53" value="Non" style="text;html=1;resizable=0;labelBackgroundColor=default;align=center;verticalAlign=middle;fontStyle=1;fontColor=#000000;fontSize=13.3;" parent="52" vertex="1">
                    <mxGeometry relative="1" as="geometry"/>
                </mxCell>
                <mxCell id="54" value="&lt;div style=&quot;display: flex; justify-content: center; text-align: center; align-items: baseline; font-size: 0; line-height: 1.25;margin-top: -2px;&quot;&gt;&lt;span&gt;&lt;span style=&quot;font-size: 16.7px;&quot;&gt;wait_verify_sevice_alway_connected&lt;/span&gt;&lt;/span&gt;&lt;/div&gt;" style="rounded=1;arcSize=20;whiteSpace=wrap;overflow=block;blockSpacing=1;html=1;fontSize=13;spacing=0;strokeColor=#5e5e5e;strokeOpacity=100;strokeWidth=2.3;fontColor=#000000;" parent="1" vertex="1">
                    <mxGeometry x="453" y="80" width="386" height="64" as="geometry"/>
                </mxCell>
                <UserObject label="" lucidchartObjectId="PQNukw4kRTRE" id="55">
                    <mxCell style="html=1;jettySize=18;whiteSpace=wrap;fontSize=13;strokeColor=#5E5E5E;strokeWidth=1.5;rounded=1;arcSize=12;edgeStyle=orthogonalEdgeStyle;startArrow=none;endArrow=block;endFill=1;exitX=0.5;exitY=-0.017;exitPerimeter=0;entryX=0.5;entryY=0.984;entryPerimeter=0;fontColor=#000000;" parent="1" source="54" target="56" edge="1">
                        <mxGeometry width="100" height="100" relative="1" as="geometry">
                            <Array as="points"/>
                        </mxGeometry>
                    </mxCell>
                </UserObject>
                <UserObject label="" lucidchartObjectId="QQNu_uLLLexZ" id="56">
                    <mxCell style="html=1;overflow=block;blockSpacing=1;whiteSpace=wrap;shape=rhombus;fontSize=13;spacing=0;strokeColor=#5e5e5e;strokeOpacity=100;rounded=1;absoluteArcSize=1;arcSize=9;strokeWidth=2.3;fontColor=#000000;" parent="1" vertex="1">
                        <mxGeometry x="626" y="-17" width="39" height="32" as="geometry"/>
                    </mxCell>
                </UserObject>
                <UserObject label="" lucidchartObjectId="UQNuPvqh8XvP" id="57">
                    <mxCell style="html=1;jettySize=18;whiteSpace=wrap;fontSize=13.3;fontColor=#000000;fontStyle=1;align=center;strokeColor=#5E5E5E;strokeWidth=1.5;rounded=1;arcSize=12;edgeStyle=orthogonalEdgeStyle;startArrow=none;endArrow=block;endFill=1;exitX=0.975;exitY=0.5;exitPerimeter=0;entryX=-0.007;entryY=0.5;entryPerimeter=0;" parent="1" source="56" target="47" edge="1">
                        <mxGeometry width="100" height="100" relative="1" as="geometry">
                            <Array as="points"/>
                        </mxGeometry>
                    </mxCell>
                </UserObject>
                <mxCell id="58" value="Oui" style="text;html=1;resizable=0;labelBackgroundColor=default;align=center;verticalAlign=middle;fontStyle=1;fontColor=#000000;fontSize=13.3;" parent="57" vertex="1">
                    <mxGeometry relative="1" as="geometry"/>
                </mxCell>
                <UserObject label="" lucidchartObjectId="2QNuEXVVpv27" id="59">
                    <mxCell style="html=1;jettySize=18;whiteSpace=wrap;fontSize=13.3;fontColor=#000000;fontStyle=1;align=center;strokeColor=#5E5E5E;strokeWidth=1.5;rounded=1;arcSize=12;edgeStyle=orthogonalEdgeStyle;startArrow=none;endArrow=block;endFill=1;exitX=0.025;exitY=0.5;exitPerimeter=0;entryX=1.029;entryY=0.5;entryPerimeter=0;" parent="1" source="56" target="61" edge="1">
                        <mxGeometry width="100" height="100" relative="1" as="geometry">
                            <Array as="points"/>
                        </mxGeometry>
                    </mxCell>
                </UserObject>
                <mxCell id="60" value="Non" style="text;html=1;resizable=0;labelBackgroundColor=default;align=center;verticalAlign=middle;fontStyle=1;fontColor=#000000;fontSize=13.3;" parent="59" vertex="1">
                    <mxGeometry relative="1" as="geometry"/>
                </mxCell>
                <UserObject label="" lucidchartObjectId="3QNuK7Czyz2s" id="61">
                    <mxCell style="html=1;overflow=block;blockSpacing=1;whiteSpace=wrap;shape=mxgraph.bpmn.shape;outline=end;symbol=terminate;strokeColor=#000000;fillColor=#ffffff;fontSize=13;spacing=0;strokeOpacity=100;rounded=1;absoluteArcSize=1;arcSize=9;strokeWidth=2.3;fontColor=#000000;" parent="1" vertex="1">
                        <mxGeometry x="260" y="-17" width="39" height="32" as="geometry"/>
                    </mxCell>
                </UserObject>
                <mxCell id="62" value="&lt;div style=&quot;display: flex; justify-content: center; text-align: center; align-items: baseline; font-size: 0; line-height: 1.25;margin-top: -2px;&quot;&gt;&lt;span&gt;&lt;span style=&quot;font-size: 16.7px;&quot;&gt;send_email_to_confirm&lt;/span&gt;&lt;/span&gt;&lt;/div&gt;" style="rounded=1;arcSize=20;whiteSpace=wrap;overflow=block;blockSpacing=1;html=1;fontSize=13;spacing=0;strokeColor=#5e5e5e;strokeOpacity=100;strokeWidth=2.3;fontColor=#000000;" parent="1" vertex="1">
                    <mxGeometry x="655" y="370" width="386" height="64" as="geometry"/>
                </mxCell>
                <UserObject label="" lucidchartObjectId="aVNukrVhu-cX" id="63">
                    <mxCell style="html=1;jettySize=18;whiteSpace=wrap;fontSize=13;strokeColor=#5E5E5E;strokeWidth=1.5;rounded=1;arcSize=12;edgeStyle=orthogonalEdgeStyle;startArrow=none;endArrow=block;endFill=1;exitX=0.5;exitY=1.017;exitPerimeter=0;entryX=0.5;entryY=0.016;entryPerimeter=0;fontColor=#000000;" parent="1" source="62" target="64" edge="1">
                        <mxGeometry width="100" height="100" relative="1" as="geometry">
                            <Array as="points"/>
                        </mxGeometry>
                    </mxCell>
                </UserObject>
                <UserObject label="" lucidchartObjectId="bVNuUQ6sD9os" id="64">
                    <mxCell style="html=1;overflow=block;blockSpacing=1;whiteSpace=wrap;shape=rhombus;fontSize=13;spacing=0;strokeColor=#5e5e5e;strokeOpacity=100;rounded=1;absoluteArcSize=1;arcSize=9;strokeWidth=2.3;fontColor=#000000;" parent="1" vertex="1">
                        <mxGeometry x="829" y="515" width="39" height="32" as="geometry"/>
                    </mxCell>
                </UserObject>
                <UserObject label="" lucidchartObjectId="zVNu8WlKqnKs" id="65">
                    <mxCell style="html=1;jettySize=18;whiteSpace=wrap;fontSize=13.3;fontColor=#000000;fontStyle=1;align=center;strokeColor=#5E5E5E;strokeWidth=1.5;rounded=1;arcSize=12;edgeStyle=orthogonalEdgeStyle;startArrow=none;endArrow=block;endFill=1;exitX=0.5;exitY=0.984;exitPerimeter=0;entryX=0.5;entryY=-0.035;entryPerimeter=0;" parent="1" source="64" target="67" edge="1">
                        <mxGeometry width="100" height="100" relative="1" as="geometry">
                            <Array as="points"/>
                        </mxGeometry>
                    </mxCell>
                </UserObject>
                <mxCell id="66" value="Oui" style="text;html=1;resizable=0;labelBackgroundColor=default;align=center;verticalAlign=middle;fontStyle=1;fontColor=#000000;fontSize=13.3;" parent="65" vertex="1">
                    <mxGeometry relative="1" as="geometry"/>
                </mxCell>
                <UserObject label="" lucidchartObjectId="AVNuHxImQMBd" id="67">
                    <mxCell style="html=1;overflow=block;blockSpacing=1;whiteSpace=wrap;shape=mxgraph.flowchart.or;fontSize=13;spacing=0;strokeColor=#5e5e5e;strokeOpacity=100;rounded=1;absoluteArcSize=1;arcSize=9;strokeWidth=2.3;fontColor=#000000;" parent="1" vertex="1">
                        <mxGeometry x="829" y="693" width="39" height="32" as="geometry"/>
                    </mxCell>
                </UserObject>
                <UserObject label="" lucidchartObjectId="KVNuYAZXLwiq" id="68">
                    <mxCell style="html=1;jettySize=18;whiteSpace=wrap;fontSize=13.3;fontColor=#000000;fontStyle=1;align=center;strokeColor=#5E5E5E;strokeWidth=1.5;rounded=1;arcSize=12;edgeStyle=orthogonalEdgeStyle;startArrow=none;endArrow=block;endFill=1;exitX=0.025;exitY=0.5;exitPerimeter=0;entryX=1.007;entryY=0.5;entryPerimeter=0;" parent="1" source="64" target="70" edge="1">
                        <mxGeometry width="100" height="100" relative="1" as="geometry">
                            <Array as="points"/>
                        </mxGeometry>
                    </mxCell>
                </UserObject>
                <mxCell id="69" value="Non" style="text;html=1;resizable=0;labelBackgroundColor=default;align=center;verticalAlign=middle;fontStyle=1;fontColor=#000000;fontSize=13.3;" parent="68" vertex="1">
                    <mxGeometry relative="1" as="geometry"/>
                </mxCell>
                <mxCell id="70" value="&lt;div style=&quot;display: flex; justify-content: center; text-align: center; align-items: baseline; font-size: 0; line-height: 1.25;margin-top: -2px;&quot;&gt;&lt;span&gt;&lt;span style=&quot;font-size: 16.7px;&quot;&gt;email_error&lt;/span&gt;&lt;/span&gt;&lt;/div&gt;" style="rounded=1;arcSize=20;whiteSpace=wrap;overflow=block;blockSpacing=1;html=1;fontSize=13;spacing=0;strokeColor=#5e5e5e;strokeOpacity=100;strokeWidth=2.3;fontColor=#000000;" parent="1" vertex="1">
                    <mxGeometry x="376" y="499" width="154" height="64" as="geometry"/>
                </mxCell>
                <UserObject label="" lucidchartObjectId="XVNuIiruViz_" id="71">
                    <mxCell style="html=1;jettySize=18;whiteSpace=wrap;fontSize=13;strokeColor=#5E5E5E;strokeWidth=1.5;rounded=1;arcSize=12;edgeStyle=orthogonalEdgeStyle;startArrow=none;endArrow=block;endFill=1;exitX=-0.007;exitY=0.5;exitPerimeter=0;entryX=1.029;entryY=0.5;entryPerimeter=0;fontColor=#000000;" parent="1" source="70" target="72" edge="1">
                        <mxGeometry width="100" height="100" relative="1" as="geometry">
                            <Array as="points"/>
                        </mxGeometry>
                    </mxCell>
                </UserObject>
                <UserObject label="" lucidchartObjectId="YVNunhURaBvm" id="72">
                    <mxCell style="html=1;overflow=block;blockSpacing=1;whiteSpace=wrap;shape=mxgraph.bpmn.shape;outline=end;symbol=terminate;strokeColor=#000000;fillColor=#ffffff;fontSize=13;spacing=0;strokeOpacity=100;rounded=1;absoluteArcSize=1;arcSize=9;strokeWidth=2.3;fontColor=#000000;" parent="1" vertex="1">
                        <mxGeometry x="260" y="515" width="39" height="32" as="geometry"/>
                    </mxCell>
                </UserObject>
                <UserObject label="Diagramme d'activité - Exercice Blog - SignUp" lucidchartObjectId="EWNu2kRmHmmf" id="73">
                    <mxCell style="html=1;overflow=block;blockSpacing=1;whiteSpace=wrap;fontSize=33.3;fontColor=#ffffff;align=center;spacing=3.8;strokeOpacity=0;fillOpacity=100;rounded=1;absoluteArcSize=1;arcSize=9;fillColor=#4c535d;strokeWidth=2.3;" parent="1" vertex="1">
                        <mxGeometry x="148.5" y="-1090" width="1380" height="48" as="geometry"/>
                    </mxCell>
                </UserObject>
            </root>
        </mxGraphModel>
    </diagram>
</mxfile>